<?xml version="1.0" encoding="UTF-8"?>
<svg xmlns="http://www.w3.org/2000/svg" viewBox="0 0 520 340" style="max-width:100%;height:auto;display:block;margin:0 auto;font-family:sans-serif"><defs><marker id="ah" markerWidth="8" markerHeight="8" refX="6" refY="3" orient="auto"><path d="M0,0 L0,6 L8,3 z" fill="#64748b"/></marker><marker id="ah2" markerWidth="8" markerHeight="8" refX="6" refY="3" orient="auto"><path d="M0,0 L0,6 L8,3 z" fill="#059669"/></marker><marker id="ahr" markerWidth="8" markerHeight="8" refX="6" refY="3" orient="auto"><path d="M0,0 L0,6 L8,3 z" fill="#dc2626"/></marker></defs><text x="260" y="34" text-anchor="middle" font-size="11" fill="#475569">Исходный</text><rect x="125" y="42" width="50" height="46" rx="8" fill="#fee2e2" stroke="#dc2626" stroke-width="1.5"/><text x="150" y="65" text-anchor="middle" font-size="18" fill="#1e293b" dominant-baseline="middle"><tspan x="150" dy="0">5</tspan></text><rect x="179" y="42" width="50" height="46" rx="8" fill="#fee2e2" stroke="#dc2626" stroke-width="1.5"/><text x="204" y="65" text-anchor="middle" font-size="18" fill="#1e293b" dominant-baseline="middle"><tspan x="204" dy="0">3</tspan></text><rect x="233" y="42" width="50" height="46" rx="8" fill="#fee2e2" stroke="#dc2626" stroke-width="1.5"/><text x="258" y="65" text-anchor="middle" font-size="18" fill="#1e293b" dominant-baseline="middle"><tspan x="258" dy="0">8</tspan></text><rect x="287" y="42" width="50" height="46" rx="8" fill="#fee2e2" stroke="#dc2626" stroke-width="1.5"/><text x="312" y="65" text-anchor="middle" font-size="18" fill="#1e293b" dominant-baseline="middle"><tspan x="312" dy="0">1</tspan></text><rect x="341" y="42" width="50" height="46" rx="8" fill="#fee2e2" stroke="#dc2626" stroke-width="1.5"/><text x="366" y="65" text-anchor="middle" font-size="18" fill="#1e293b" dominant-baseline="middle"><tspan x="366" dy="0">9</tspan></text><text x="260" y="114" text-anchor="middle" font-size="11" fill="#475569">Шаг 1: сравним 5,3 → меняем</text><rect x="125" y="122" width="50" height="46" rx="8" fill="#bbf7d0" stroke="#ca8a04" stroke-width="1.5"/><text x="150" y="145" text-anchor="middle" font-size="18" fill="#1e293b" dominant-baseline="middle"><tspan x="150" dy="0">3</tspan></text><rect x="179" y="122" width="50" height="46" rx="8" fill="#bbf7d0" stroke="#ca8a04" stroke-width="1.5"/><text x="204" y="145" text-anchor="middle" font-size="18" fill="#1e293b" dominant-baseline="middle"><tspan x="204" dy="0">5</tspan></text><rect x="233" y="122" width="50" height="46" rx="8" fill="#fef9c3" stroke="#ca8a04" stroke-width="1.5"/><text x="258" y="145" text-anchor="middle" font-size="18" fill="#1e293b" dominant-baseline="middle"><tspan x="258" dy="0">8</tspan></text><rect x="287" y="122" width="50" height="46" rx="8" fill="#fef9c3" stroke="#ca8a04" stroke-width="1.5"/><text x="312" y="145" text-anchor="middle" font-size="18" fill="#1e293b" dominant-baseline="middle"><tspan x="312" dy="0">1</tspan></text><rect x="341" y="122" width="50" height="46" rx="8" fill="#fef9c3" stroke="#ca8a04" stroke-width="1.5"/><text x="366" y="145" text-anchor="middle" font-size="18" fill="#1e293b" dominant-baseline="middle"><tspan x="366" dy="0">9</tspan></text><text x="260" y="194" text-anchor="middle" font-size="11" fill="#475569">Шаг 2: сравним 5,8 → ок</text><rect x="125" y="202" width="50" height="46" rx="8" fill="#dcfce7" stroke="#16a34a" stroke-width="1.5"/><text x="150" y="225" text-anchor="middle" font-size="18" fill="#1e293b" dominant-baseline="middle"><tspan x="150" dy="0">3</tspan></text><rect x="179" y="202" width="50" height="46" rx="8" fill="#bbf7d0" stroke="#16a34a" stroke-width="1.5"/><text x="204" y="225" text-anchor="middle" font-size="18" fill="#1e293b" dominant-baseline="middle"><tspan x="204" dy="0">5</tspan></text><rect x="233" y="202" width="50" height="46" rx="8" fill="#bbf7d0" stroke="#16a34a" stroke-width="1.5"/><text x="258" y="225" text-anchor="middle" font-size="18" fill="#1e293b" dominant-baseline="middle"><tspan x="258" dy="0">8</tspan></text><rect x="287" y="202" width="50" height="46" rx="8" fill="#dcfce7" stroke="#16a34a" stroke-width="1.5"/><text x="312" y="225" text-anchor="middle" font-size="18" fill="#1e293b" dominant-baseline="middle"><tspan x="312" dy="0">1</tspan></text><rect x="341" y="202" width="50" height="46" rx="8" fill="#dcfce7" stroke="#16a34a" stroke-width="1.5"/><text x="366" y="225" text-anchor="middle" font-size="18" fill="#1e293b" dominant-baseline="middle"><tspan x="366" dy="0">9</tspan></text><text x="260" y="274" text-anchor="middle" font-size="11" fill="#475569">Шаг 3: …итог прохода</text><rect x="125" y="282" width="50" height="46" rx="8" fill="#e0f2fe" stroke="#0284c7" stroke-width="1.5"/><text x="150" y="305" text-anchor="middle" font-size="18" fill="#1e293b" dominant-baseline="middle"><tspan x="150" dy="0">3</tspan></text><rect x="179" y="282" width="50" height="46" rx="8" fill="#e0f2fe" stroke="#0284c7" stroke-width="1.5"/><text x="204" y="305" text-anchor="middle" font-size="18" fill="#1e293b" dominant-baseline="middle"><tspan x="204" dy="0">5</tspan></text><rect x="233" y="282" width="50" height="46" rx="8" fill="#bbf7d0" stroke="#0284c7" stroke-width="1.5"/><text x="258" y="305" text-anchor="middle" font-size="18" fill="#1e293b" dominant-baseline="middle"><tspan x="258" dy="0">1</tspan></text><rect x="287" y="282" width="50" height="46" rx="8" fill="#bbf7d0" stroke="#0284c7" stroke-width="1.5"/><text x="312" y="305" text-anchor="middle" font-size="18" fill="#1e293b" dominant-baseline="middle"><tspan x="312" dy="0">8</tspan></text><rect x="341" y="282" width="50" height="46" rx="8" fill="#e0f2fe" stroke="#0284c7" stroke-width="1.5"/><text x="366" y="305" text-anchor="middle" font-size="18" fill="#1e293b" dominant-baseline="middle"><tspan x="366" dy="0">9</tspan></text></svg>