<?xml version='1.0' encoding='UTF-8'?>
<svg xmlns="http://www.w3.org/2000/svg" viewBox="0 0 560 337" style="max-width:100%;height:auto;display:block;margin:0 auto;font-family:sans-serif"><defs><marker id="ah" markerWidth="8" markerHeight="8" refX="6" refY="3" orient="auto"><path d="M0,0 L0,6 L8,3 z" fill="#64748b" /></marker><marker id="ah2" markerWidth="8" markerHeight="8" refX="6" refY="3" orient="auto"><path d="M0,0 L0,6 L8,3 z" fill="#059669" /></marker><marker id="ahr" markerWidth="8" markerHeight="8" refX="6" refY="3" orient="auto"><path d="M0,0 L0,6 L8,3 z" fill="#dc2626" /></marker></defs><text x="280" y="18" text-anchor="middle" font-size="12" fill="#1e293b">Сортировка слиянием: [5,3,8,1] → разбить и слить</text><rect x="190" y="30" width="180" height="38" rx="8" fill="#e0f2fe" stroke="#0284c7" stroke-width="1.5" /><text x="280" y="49" text-anchor="middle" font-size="14" fill="#0369a1" dominant-baseline="middle"><tspan x="280" dy="0">[5, 3, 8, 1]</tspan></text><path d="M 250 68 L 140 108" stroke="#64748b" stroke-width="1.5" marker-end="url(#ah)" /><path d="M 330 68 L 420 108" stroke="#64748b" stroke-width="1.5" marker-end="url(#ah)" /><rect x="80" y="108" width="120" height="38" rx="8" fill="#ede9fe" stroke="#7c3aed" stroke-width="1.5" /><text x="140" y="127" text-anchor="middle" font-size="14" fill="#4c1d95" dominant-baseline="middle"><tspan x="140" dy="0">[5, 3]</tspan></text><rect x="360" y="108" width="120" height="38" rx="8" fill="#ede9fe" stroke="#7c3aed" stroke-width="1.5" /><text x="420" y="127" text-anchor="middle" font-size="14" fill="#4c1d95" dominant-baseline="middle"><tspan x="420" dy="0">[8, 1]</tspan></text><path d="M 120 146 L 75 186" stroke="#64748b" stroke-width="1.5" marker-end="url(#ah)" /><path d="M 160 146 L 195 186" stroke="#64748b" stroke-width="1.5" marker-end="url(#ah)" /><path d="M 400 146 L 355 186" stroke="#64748b" stroke-width="1.5" marker-end="url(#ah)" /><path d="M 440 146 L 475 186" stroke="#64748b" stroke-width="1.5" marker-end="url(#ah)" /><rect x="45" y="186" width="60" height="38" rx="8" fill="#dcfce7" stroke="#16a34a" stroke-width="1.5" /><text x="75" y="205" text-anchor="middle" font-size="14" fill="#15803d" dominant-baseline="middle"><tspan x="75" dy="0">[5]</tspan></text><rect x="165" y="186" width="60" height="38" rx="8" fill="#dcfce7" stroke="#16a34a" stroke-width="1.5" /><text x="195" y="205" text-anchor="middle" font-size="14" fill="#15803d" dominant-baseline="middle"><tspan x="195" dy="0">[3]</tspan></text><rect x="325" y="186" width="60" height="38" rx="8" fill="#dcfce7" stroke="#16a34a" stroke-width="1.5" /><text x="355" y="205" text-anchor="middle" font-size="14" fill="#15803d" dominant-baseline="middle"><tspan x="355" dy="0">[8]</tspan></text><rect x="445" y="186" width="60" height="38" rx="8" fill="#dcfce7" stroke="#16a34a" stroke-width="1.5" /><text x="475" y="205" text-anchor="middle" font-size="14" fill="#15803d" dominant-baseline="middle"><tspan x="475" dy="0">[1]</tspan></text><text x="280" y="248" text-anchor="middle" font-size="12" fill="#ca8a04">▼  слияние (merge)  ▼</text><rect x="80" y="264" width="120" height="38" rx="8" fill="#fef9c3" stroke="#ca8a04" stroke-width="1.5" /><text x="140" y="283" text-anchor="middle" font-size="14" fill="#854d0e" dominant-baseline="middle"><tspan x="140" dy="0">[3, 5]</tspan></text><rect x="360" y="264" width="120" height="38" rx="8" fill="#fef9c3" stroke="#ca8a04" stroke-width="1.5" /><text x="420" y="283" text-anchor="middle" font-size="14" fill="#854d0e" dominant-baseline="middle"><tspan x="420" dy="0">[1, 8]</tspan></text><path d="M 140 264 L 230 312" stroke="#064e3b" stroke-width="1.5" marker-end="url(#ah2)" /><path d="M 420 264 L 330 312" stroke="#064e3b" stroke-width="1.5" marker-end="url(#ah2)" /><rect x="190" y="300" width="180" height="27" rx="4" fill="#dcfce7" stroke="#059669" stroke-width="1.5" /><text x="280" y="307" text-anchor="middle" font-size="13" fill="#1e293b" dominant-baseline="middle"><tspan x="280" dy="0" /></text><text x="280" y="313" text-anchor="middle" font-size="13" fill="#15803d">[1, 3, 5, 8]  — готово!</text></svg>