<?xml version="1.0" encoding="UTF-8"?>
<svg xmlns="http://www.w3.org/2000/svg" viewBox="0 0 540 180" style="max-width:100%;height:auto;display:block;margin:0 auto;font-family:sans-serif"><defs><marker id="ah" markerWidth="8" markerHeight="8" refX="6" refY="3" orient="auto"><path d="M0,0 L0,6 L8,3 z" fill="#64748b"/></marker><marker id="ag" markerWidth="8" markerHeight="8" refX="6" refY="3" orient="auto"><path d="M0,0 L0,6 L8,3 z" fill="#059669"/></marker><marker id="ar" markerWidth="8" markerHeight="8" refX="6" refY="3" orient="auto"><path d="M0,0 L0,6 L8,3 z" fill="#dc2626"/></marker></defs><text x="270" y="18" text-anchor="middle" font-size="14" fill="#1e293b">Python: от кода до запуска</text><rect x="20" y="36" width="120" height="44" rx="7" fill="#e0f2fe" stroke="#0284c7" stroke-width="1.5"/><text x="80" y="50" text-anchor="middle" font-size="12" fill="#0369a1" dominant-baseline="middle"><tspan x="80" dy="0">Ваш код</tspan><tspan x="80" dy="17">.py файл</tspan></text><line x1="140" y1="58" x2="180" y2="58" stroke="#64748b" stroke-width="1.5" marker-end="url(#ah)"/><rect x="180" y="36" width="120" height="44" rx="7" fill="#ede9fe" stroke="#7c3aed" stroke-width="1.5"/><text x="240" y="50" text-anchor="middle" font-size="12" fill="#4c1d95" dominant-baseline="middle"><tspan x="240" dy="0">Интерпретатор</tspan><tspan x="240" dy="17">CPython</tspan></text><line x1="300" y1="58" x2="340" y2="58" stroke="#64748b" stroke-width="1.5" marker-end="url(#ah)"/><rect x="340" y="36" width="90" height="44" rx="7" fill="#dcfce7" stroke="#16a34a" stroke-width="1.5"/><text x="385" y="50" text-anchor="middle" font-size="12" fill="#15803d" dominant-baseline="middle"><tspan x="385" dy="0">Байт-код</tspan><tspan x="385" dy="17">.pyc</tspan></text><line x1="430" y1="58" x2="470" y2="58" stroke="#64748b" stroke-width="1.5" marker-end="url(#ah)"/><rect x="470" y="36" width="60" height="44" rx="7" fill="#fff7ed" stroke="#ea580c" stroke-width="1.5"/><text x="500" y="50" text-anchor="middle" font-size="12" fill="#9a3412" dominant-baseline="middle"><tspan x="500" dy="0">PVM</tspan><tspan x="500" dy="17">(ВМ)</tspan></text><rect x="20" y="108" width="115" height="44" rx="7" fill="#fef9c3" stroke="#ca8a04" stroke-width="1.5"/><text x="77" y="122" text-anchor="middle" font-size="12" fill="#854d0e" dominant-baseline="middle"><tspan x="77" dy="0">python</tspan><tspan x="77" dy="17">(REPL)</tspan></text><rect x="155" y="108" width="120" height="44" rx="7" fill="#f1f5f9" stroke="#94a3b8" stroke-width="1.5"/><text x="215" y="122" text-anchor="middle" font-size="11" fill="#475569" dominant-baseline="middle"><tspan x="215" dy="0">VS Code / IDE</tspan><tspan x="215" dy="16">+ отладчик</tspan></text><rect x="295" y="108" width="115" height="44" rx="7" fill="#dcfce7" stroke="#16a34a" stroke-width="1.5"/><text x="352" y="122" text-anchor="middle" font-size="12" fill="#15803d" dominant-baseline="middle"><tspan x="352" dy="0">pip install</tspan><tspan x="352" dy="17">пакеты</tspan></text><rect x="430" y="108" width="100" height="44" rx="7" fill="#fee2e2" stroke="#dc2626" stroke-width="1.5"/><text x="480" y="122" text-anchor="middle" font-size="12" fill="#991b1b" dominant-baseline="middle"><tspan x="480" dy="0">venv</tspan><tspan x="480" dy="17">окружение</tspan></text><text x="270" y="168" text-anchor="middle" font-size="11" fill="#64748b">python script.py → запустить файл  |  python -c "..."  → одна строка</text></svg>